<?xml version="1.0" encoding="UTF-8" standalone="no"?>
<svg
   data-name="Layer 1"
   viewBox="0 0 24 24"
   version="1.1"
   id="svg4"
   sodipodi:docname="keyboard.svg"
   inkscape:version="1.2.1 (9c6d41e410, 2022-07-14)"
   xmlns:inkscape="http://www.inkscape.org/namespaces/inkscape"
   xmlns:sodipodi="http://sodipodi.sourceforge.net/DTD/sodipodi-0.dtd"
   xmlns="http://www.w3.org/2000/svg"
   xmlns:svg="http://www.w3.org/2000/svg">
  <defs
     id="defs8" />
  <sodipodi:namedview
     id="namedview6"
     pagecolor="#ffffff"
     bordercolor="#000000"
     borderopacity="0.25"
     inkscape:showpageshadow="2"
     inkscape:pageopacity="0.0"
     inkscape:pagecheckerboard="0"
     inkscape:deskcolor="#d1d1d1"
     showgrid="false"
     inkscape:zoom="24.424647"
     inkscape:cx="11.668541"
     inkscape:cy="10.071794"
     inkscape:window-width="1920"
     inkscape:window-height="1009"
     inkscape:window-x="-8"
     inkscape:window-y="-8"
     inkscape:window-maximized="1"
     inkscape:current-layer="svg4" />
  <path
     d="m 6.71,13.319727 c -0.6307418,-0.635966 -1.7152089,-0.18569 -1.71,0.71 -0.013935,1.185214 2.384347,0.710554 1.92,-0.38 -0.047594,-0.122751 -0.1189594,-0.234896 -0.21,-0.33 z m 2.58,-2.58 c 0.1887188,0.187186 0.444197,0.291536 0.71,0.29 0.265803,0.0015 0.521281,-0.102814 0.71,-0.29 0.08833,-0.0972 0.159358,-0.208816 0.21,-0.33 0.05124,-0.120223 0.07842,-0.249323 0.08,-0.38 -0.0037,-0.2647675 -0.107266,-0.5183667 -0.29,-0.7100005 l -0.15,-0.12 -0.18,-0.09 c -0.05824,-0.037429 -0.122525,-0.064495 -0.19,-0.08 -0.326236,-0.065324 -0.6635962,0.035884 -0.9,0.27 -0.091041,0.095104 -0.1624056,0.2072487 -0.21,0.33 -0.1069768,0.2420399 -0.1069768,0.5179605 0,0.7600005 0.04857,0.128255 0.1196903,0.246788 0.21,0.35 z M 6.56,9.1997265 c -0.055745,-0.037846 -0.1162757,-0.068112 -0.18,-0.09 l -0.18,-0.08 c -0.3294419,-0.068871 -0.6714304,0.032598 -0.91,0.27 -0.091041,0.095104 -0.1624056,0.2072487 -0.21,0.33 -0.1069768,0.2420399 -0.1069768,0.5179605 0,0.7600005 0.050642,0.121184 0.1216691,0.232799 0.21,0.33 0.097201,0.08833 0.2088151,0.159358 0.33,0.21 0.1169792,0.06291 0.2472087,0.09718 0.38,0.1 0.265803,0.0015 0.5212812,-0.102814 0.71,-0.29 0.088331,-0.0972 0.1593581,-0.208816 0.21,-0.33 0.051241,-0.120223 0.07842,-0.249323 0.08,-0.38 C 6.9963165,9.7649595 6.8927337,9.5113603 6.71,9.3197265 Z m 12.15,4.1200005 c -0.391177,-0.394398 -1.028823,-0.394398 -1.42,0 -0.09104,0.0951 -0.162406,0.207249 -0.21,0.33 -0.326804,0.816446 0.483554,1.626804 1.3,1.3 0.121185,-0.05064 0.232799,-0.121669 0.33,-0.21 0.187187,-0.188719 0.291537,-0.444197 0.29,-0.71 0.0034,-0.131177 -0.02402,-0.261321 -0.08,-0.38 -0.04759,-0.122751 -0.118959,-0.234896 -0.21,-0.33 z m -4.71,-0.29 h -4 c -1.3333328,0 -1.3333328,2 0,2 h 4 c 1.333333,0 1.333333,-2 0,-2 z M 20,5.0297265 H 4 c -1.6568542,0 -3,1.3431458 -3,3 v 8.0000005 c 0,1.656854 1.3431458,3 3,3 h 16 c 1.656854,0 3,-1.343146 3,-3 V 8.0297265 c 0,-1.6568542 -1.343146,-3 -3,-3 z m 1,11.0000005 c 0,0.552285 -0.447715,1 -1,1 H 4 c -0.5522847,0 -1,-0.447715 -1,-1 V 8.0297265 c 0,-0.5522847 0.4477153,-1 1,-1 h 16 c 0.552285,0 1,0.4477153 1,1 z M 17.62,9.1097265 c -0.123643,0.045814 -0.236131,0.1173973 -0.33,0.21 -0.182734,0.1916338 -0.286317,0.445233 -0.29,0.7100005 0.0016,0.130677 0.02876,0.259777 0.08,0.38 0.05064,0.121184 0.121669,0.232799 0.21,0.33 0.188719,0.187186 0.444197,0.291536 0.71,0.29 0.265803,0.0015 0.521281,-0.102814 0.71,-0.29 0.08833,-0.0972 0.159358,-0.208816 0.21,-0.33 0.05124,-0.120223 0.07842,-0.249323 0.08,-0.38 -0.0037,-0.2647675 -0.107266,-0.5183667 -0.29,-0.7100005 -0.287561,-0.2837446 -0.717603,-0.3665967 -1.09,-0.21 z m -3.06,0.09 -0.18,-0.09 -0.18,-0.08 c -0.195001,-0.038062 -0.39692,-0.017173 -0.58,0.06 -0.123643,0.045814 -0.236131,0.1173973 -0.33,0.21 -0.09104,0.095104 -0.162406,0.2072487 -0.21,0.33 -0.106977,0.2420399 -0.106977,0.5179605 0,0.7600005 0.05064,0.121184 0.121669,0.232799 0.21,0.33 0.185399,0.194535 0.441294,0.306264 0.71,0.31 0.265803,0.0015 0.521281,-0.102814 0.71,-0.29 0.08833,-0.0972 0.159358,-0.208816 0.21,-0.33 0.05124,-0.120223 0.07842,-0.249323 0.08,-0.38 -0.0037,-0.2647675 -0.107266,-0.5183667 -0.29,-0.7100005 z"
     id="path2"
     sodipodi:nodetypes="cccccccccccccccccccccccccccccccccccccccsssssssssssssssssssssssccccccccccccccccccccccccc" />
</svg>
