<?xml version="1.0" encoding="UTF-8" standalone="no"?>
<!-- Uploaded to: SVG Repo, www.svgrepo.com, Generator: SVG Repo Mixer Tools -->

<svg
   fill="#000000"
   width="800"
   height="800"
   viewBox="0 0 56 56"
   version="1.1"
   id="svg19"
   sodipodi:docname="unpin - kopie.svg"
   inkscape:version="1.2.1 (9c6d41e410, 2022-07-14)"
   inkscape:export-filename="unpin.svg"
   inkscape:export-xdpi="96"
   inkscape:export-ydpi="96"
   xml:space="preserve"
   xmlns:inkscape="http://www.inkscape.org/namespaces/inkscape"
   xmlns:sodipodi="http://sodipodi.sourceforge.net/DTD/sodipodi-0.dtd"
   xmlns="http://www.w3.org/2000/svg"
   xmlns:svg="http://www.w3.org/2000/svg"><defs
     id="defs23" /><sodipodi:namedview
     id="namedview21"
     pagecolor="#ffffff"
     bordercolor="#000000"
     borderopacity="0.25"
     inkscape:showpageshadow="2"
     inkscape:pageopacity="0.0"
     inkscape:pagecheckerboard="0"
     inkscape:deskcolor="#d1d1d1"
     showgrid="false"
     inkscape:zoom="1.4654788"
     inkscape:cx="350.73861"
     inkscape:cy="398.50457"
     inkscape:window-width="1920"
     inkscape:window-height="1009"
     inkscape:window-x="-8"
     inkscape:window-y="-8"
     inkscape:window-maximized="1"
     inkscape:current-layer="svg19" /><g
     style="fill:#666666"
     id="g115"
     transform="matrix(0.98529579,0,0,0.94294801,0.17528814,2.5667653)"><path
       d="m 18.906679,33.271521 h 7.736676 v 7.9692 c 0,2.356666 0.9768,4.341226 1.364385,4.341226 0.387584,0 1.364385,-1.98456 1.364385,-4.341226 v -7.9692 h 7.721196 c 1.06981,0 1.844979,-0.682226 1.844979,-1.721011 0,-0.6512 -0.201499,-1.116314 -0.651133,-1.596909 L 33.54281,24.806115 c -0.325599,-0.341079 -0.527165,-0.58915 -0.449634,-1.224871 l 0.790714,-5.65904 c 0.04657,-0.325599 0.07752,-0.511685 0.356626,-0.71325 l 3.81406,-2.759729 c 0.852766,-0.620242 1.224871,-1.379932 1.224871,-2.077638 0,-1.038784 -0.837287,-1.953534 -2.031066,-1.953534 H 18.751619 c -1.193779,0 -2.031066,0.91475 -2.031066,1.953534 0,0.697706 0.372105,1.457396 1.209325,2.077638 l 3.814061,2.759729 c 0.294641,0.201565 0.3256,0.387651 0.372104,0.71325 l 0.790781,5.65904 c 0.07753,0.635721 -0.124035,0.883792 -0.449634,1.224871 l -4.744357,5.147486 C 17.263199,30.434196 17.0617,30.89931 17.0617,31.55051 c 0,1.038785 0.775169,1.721011 1.844979,1.721011 z"
       id="path6"
       style="fill:#666666;stroke-width:0.661521" /></g></svg>
