<?xml version="1.0" encoding="UTF-8" standalone="no"?>
<svg
   data-name="Layer 1"
   viewBox="0 0 24 24"
   version="1.1"
   id="svg4"
   sodipodi:docname="saveW.svg"
   inkscape:version="1.2.1 (9c6d41e410, 2022-07-14)"
   xmlns:inkscape="http://www.inkscape.org/namespaces/inkscape"
   xmlns:sodipodi="http://sodipodi.sourceforge.net/DTD/sodipodi-0.dtd"
   xmlns="http://www.w3.org/2000/svg"
   xmlns:svg="http://www.w3.org/2000/svg">
  <defs
     id="defs8" />
  <sodipodi:namedview
     id="namedview6"
     pagecolor="#ffffff"
     bordercolor="#000000"
     borderopacity="0.25"
     inkscape:showpageshadow="2"
     inkscape:pageopacity="0.0"
     inkscape:pagecheckerboard="0"
     inkscape:deskcolor="#d1d1d1"
     showgrid="false"
     inkscape:zoom="34.541667"
     inkscape:cx="12.014475"
     inkscape:cy="12.014475"
     inkscape:window-width="1920"
     inkscape:window-height="1009"
     inkscape:window-x="-8"
     inkscape:window-y="-8"
     inkscape:window-maximized="1"
     inkscape:current-layer="svg4" />
  <path
     d="m20.71 9.29-6-6a1 1 0 0 0-.32-.21A1.09 1.09 0 0 0 14 3H6a3 3 0 0 0-3 3v12a3 3 0 0 0 3 3h12a3 3 0 0 0 3-3v-8a1 1 0 0 0-.29-.71ZM9 5h4v2H9Zm6 14H9v-3a1 1 0 0 1 1-1h4a1 1 0 0 1 1 1Zm4-1a1 1 0 0 1-1 1h-1v-3a3 3 0 0 0-3-3h-4a3 3 0 0 0-3 3v3H6a1 1 0 0 1-1-1V6a1 1 0 0 1 1-1h1v3a1 1 0 0 0 1 1h6a1 1 0 0 0 1-1V6.41l4 4Z"
     id="path2"
     style="fill:#ffffff" />
</svg>
