<?xml version="1.0" encoding="UTF-8" standalone="no"?>
<!-- Uploaded to: SVG Repo, www.svgrepo.com, Generator: SVG Repo Mixer Tools -->

<svg
   fill="#000000"
   width="800px"
   height="800px"
   viewBox="0 0 56 56"
   version="1.1"
   id="svg4"
   sodipodi:docname="unpin.svg"
   xml:space="preserve"
   inkscape:version="1.2.1 (9c6d41e410, 2022-07-14)"
   xmlns:inkscape="http://www.inkscape.org/namespaces/inkscape"
   xmlns:sodipodi="http://sodipodi.sourceforge.net/DTD/sodipodi-0.dtd"
   xmlns="http://www.w3.org/2000/svg"
   xmlns:svg="http://www.w3.org/2000/svg"><defs
     id="defs8" /><sodipodi:namedview
     id="namedview6"
     pagecolor="#ffffff"
     bordercolor="#000000"
     borderopacity="0.25"
     inkscape:showpageshadow="2"
     inkscape:pageopacity="0.0"
     inkscape:pagecheckerboard="0"
     inkscape:deskcolor="#d1d1d1"
     showgrid="false"
     inkscape:zoom="1.4654788"
     inkscape:cx="263.39514"
     inkscape:cy="376.6687"
     inkscape:window-width="1920"
     inkscape:window-height="1009"
     inkscape:window-x="-8"
     inkscape:window-y="-8"
     inkscape:window-maximized="1"
     inkscape:current-layer="svg4" /><path
     d="m 39.920699,38.174269 c 0.447489,0.447488 1.154989,0.447488 1.573587,0 0.432796,-0.433043 0.447303,-1.125975 0,-1.573463 L 15.986269,11.107295 c -0.433105,-0.433043 -1.154865,-0.433043 -1.587908,0 -0.41866,0.418661 -0.41866,1.154865 0,1.573525 z m -7.001352,-12.486898 0.837258,-6.048533 c 0.02889,-0.317607 0.08661,-0.505269 0.375325,-0.692932 l 3.507868,-2.540665 c 0.793985,-0.577433 1.125975,-1.284809 1.125975,-1.934405 0,-0.967202 -0.765095,-1.818906 -1.89107,-1.818906 H 19.883907 Z M 18.78676,33.930197 h 7.708667 v 7.41995 c 0,2.194169 0.923929,4.041965 1.270364,4.041965 0.360879,0 1.284809,-1.847796 1.284809,-4.041965 v -7.41995 h 4.056409 L 22.251355,23.07448 l 0.245381,1.833351 c 0.08667,0.591877 -0.115437,0.822875 -0.404154,1.140419 l -4.417351,4.792677 c -0.41866,0.447488 -0.606261,0.880594 -0.606261,1.486916 0,0.967141 0.707315,1.602354 1.71779,1.602354 z"
     id="path2"
     style="stroke-width:0.619962;fill:#666666" /></svg>
